<svg width="314" height="274" viewBox="0 0 314 274" fill="none" xmlns="http://www.w3.org/2000/svg">
<g clip-path="url(#clip0_850:1526)">
<path opacity="0.3" d="M296.601 272.959H18.8173C18.8173 272.959 10.0059 258.084 3.88268 228.408C-2.24051 198.732 26.882 209.516 34.3493 183.857C41.8166 158.197 9.25913 163.627 12.022 128.521C14.7103 93.4159 59.4394 92.7465 81.0946 97.5065C102.75 102.267 100.062 86.0527 125.152 59.0543C150.242 32.0559 188.176 34.7334 207.143 55.7074C226.11 76.607 219.986 98.2503 243.732 98.2503C267.478 98.2503 289.134 103.01 303.321 148.156C317.509 193.302 291.523 214.053 292.046 234.358C292.569 254.737 296.601 272.959 296.601 272.959Z" fill="white"/>
<path d="M131.2 272.959C124.405 262.621 95.3571 219.26 86.8444 218.07C78.5557 216.954 49.1345 260.761 41.1445 272.959H131.2Z" fill="#313131" stroke="#313131" stroke-miterlimit="10" stroke-linecap="round" stroke-linejoin="round"/>
<path d="M168.388 19.4864V119.522" stroke="#313131" stroke-width="3" stroke-miterlimit="10" stroke-linecap="round" stroke-linejoin="round"/>
<path d="M180.336 22.164V119.522" stroke="#313131" stroke-width="3" stroke-miterlimit="10" stroke-linecap="round" stroke-linejoin="round"/>
<path d="M193.403 75.4169V169.725" stroke="#313131" stroke-width="3" stroke-miterlimit="10" stroke-linecap="round" stroke-linejoin="round"/>
<path d="M207.292 22.164V169.725" stroke="#313131" stroke-width="3" stroke-miterlimit="10" stroke-linecap="round" stroke-linejoin="round"/>
<path d="M221.106 22.164V122.199" stroke="#313131" stroke-width="3" stroke-miterlimit="10" stroke-linecap="round" stroke-linejoin="round"/>
<path d="M158.008 32.8741H221.555" stroke="#313131" stroke-width="3" stroke-miterlimit="10" stroke-linecap="round" stroke-linejoin="round"/>
<path d="M158.008 55.1124H226.856" stroke="#313131" stroke-width="3" stroke-miterlimit="10" stroke-linecap="round" stroke-linejoin="round"/>
<path d="M156.888 75.4169H233.428" stroke="#313131" stroke-width="3" stroke-miterlimit="10" stroke-linecap="round" stroke-linejoin="round"/>
<path d="M155.693 98.0271H233.428" stroke="#313131" stroke-width="3" stroke-miterlimit="10" stroke-linecap="round" stroke-linejoin="round"/>
<path d="M170.329 122.571H229.246" stroke="#313131" stroke-width="3" stroke-miterlimit="10" stroke-linecap="round" stroke-linejoin="round"/>
<path d="M185.712 146.371H224.243" stroke="#313131" stroke-width="3" stroke-miterlimit="10" stroke-linecap="round" stroke-linejoin="round"/>
<path d="M84.4551 29.0065L98.0455 39.5678" stroke="#313131" stroke-width="2" stroke-miterlimit="10" stroke-linecap="round" stroke-linejoin="round"/>
<path d="M111.636 17.7758L116.34 24.8414" stroke="#313131" stroke-width="2" stroke-miterlimit="10" stroke-linecap="round" stroke-linejoin="round"/>
<path d="M135.83 0.743744L139.937 13.6851" stroke="#313131" stroke-width="2" stroke-miterlimit="10" stroke-linecap="round" stroke-linejoin="round"/>
<path d="M213.341 167.048H190.939V114.018H160.547V20.007C119.627 20.3789 86.6211 53.5505 86.6211 94.3827C86.6211 106.952 89.7574 118.778 95.2832 129.116C97.7474 134.769 103.423 148.603 109.172 166.453C114.474 182.964 117.237 199.55 117.237 202.079C117.237 202.302 117.237 202.599 117.237 202.822C117.162 205.946 119.627 208.549 122.838 208.549H156.664H166.073H199.9C203.036 208.549 205.575 205.946 205.501 202.822C205.501 202.525 205.501 202.302 205.501 202.079C205.426 199.624 208.114 183.41 213.341 167.048Z" fill="#001689" stroke="#313131" stroke-width="2" stroke-miterlimit="10" stroke-linecap="round" stroke-linejoin="round"/>
<path d="M135.233 31.9815C137.399 31.0146 139.564 30.1965 141.879 29.4527" stroke="#313131" stroke-width="2" stroke-miterlimit="10" stroke-linecap="round" stroke-linejoin="round"/>
<path d="M110.367 50.8729C110.367 50.8729 116.49 41.2785 129.857 34.7334" stroke="#313131" stroke-width="2" stroke-miterlimit="10" stroke-linecap="round" stroke-linejoin="round"/>
<path d="M111.936 157.9C114.698 166.899 118.357 179.394 119.627 186.385C121.792 198.137 120.374 204.236 125.003 205.277" stroke="#313131" stroke-width="2" stroke-miterlimit="10" stroke-linecap="round" stroke-linejoin="round"/>
<path d="M108.575 147.189C108.575 147.189 109.397 149.569 110.517 153.288" stroke="#313131" stroke-width="2" stroke-miterlimit="10" stroke-linecap="round" stroke-linejoin="round"/>
<path d="M156.59 207.88V136.777C156.59 136.777 159.502 118.183 149.795 118.183C140.087 118.183 140.834 127.852 152.035 138.264C163.236 148.677 180.411 139.008 182.651 130.827C184.891 122.645 178.917 118.927 175.184 125.62C171.45 132.314 175.184 208.178 175.184 208.178" stroke="#313131" stroke-width="2" stroke-miterlimit="10" stroke-linecap="round" stroke-linejoin="round"/>
<path d="M201.766 208.177H121.194V226.771H201.766V208.177Z" fill="white" stroke="#313131" stroke-width="2" stroke-miterlimit="10" stroke-linecap="round" stroke-linejoin="round"/>
<path d="M201.766 231.234H121.194V249.828H201.766V231.234Z" fill="white" stroke="#313131" stroke-width="2" stroke-miterlimit="10" stroke-linecap="round" stroke-linejoin="round"/>
<path d="M201.766 226.846H121.194V231.308H201.766V226.846Z" fill="#313131" stroke="#313131" stroke-miterlimit="10" stroke-linecap="round" stroke-linejoin="round"/>
<path d="M201.766 254.29H121.194V272.884H201.766V254.29Z" fill="white" stroke="#313131" stroke-width="2" stroke-miterlimit="10" stroke-linecap="round" stroke-linejoin="round"/>
<path d="M193.403 224.317H199.377" stroke="#313131" stroke-miterlimit="10" stroke-linecap="round" stroke-linejoin="round"/>
<path d="M124.405 224.317H190.491" stroke="#313131" stroke-miterlimit="10" stroke-linecap="round" stroke-linejoin="round"/>
<path d="M177.871 247.745H197.137" stroke="#313131" stroke-miterlimit="10" stroke-linecap="round" stroke-linejoin="round"/>
<path d="M136.353 247.745H175.63" stroke="#313131" stroke-miterlimit="10" stroke-linecap="round" stroke-linejoin="round"/>
<path d="M129.931 247.745H133.216" stroke="#313131" stroke-miterlimit="10" stroke-linecap="round" stroke-linejoin="round"/>
<path d="M201.766 249.902H121.194V254.365H201.766V249.902Z" fill="#313131" stroke="#313131" stroke-miterlimit="10" stroke-linecap="round" stroke-linejoin="round"/>
<path d="M159.277 258.381H131.723V272.661H159.277V258.381Z" fill="#001689" stroke="#313131" stroke-miterlimit="10" stroke-linecap="round" stroke-linejoin="round"/>
<path d="M195.195 258.381H167.641V272.661H195.195V258.381Z" fill="#001689" stroke="#313131" stroke-miterlimit="10" stroke-linecap="round" stroke-linejoin="round"/>
<path d="M219.987 272.959C214.685 268.347 192.134 248.935 185.562 248.415C179.141 247.894 156.291 267.529 150.093 272.959H219.987Z" fill="#313131" stroke="#313131" stroke-miterlimit="10" stroke-linecap="round" stroke-linejoin="round"/>
<path d="M307.13 272.959H313.626" stroke="#313131" stroke-miterlimit="10" stroke-linecap="round" stroke-linejoin="round"/>
<path d="M10.4541 272.959H300.708" stroke="#313131" stroke-miterlimit="10" stroke-linecap="round" stroke-linejoin="round"/>
<path d="M0.373047 272.959H5.45081" stroke="#313131" stroke-miterlimit="10" stroke-linecap="round" stroke-linejoin="round"/>
<path d="M294.137 230.49H274.722V257.563H282.786H294.137H302.127V244.027L294.137 230.49Z" fill="#313131" stroke="#313131" stroke-miterlimit="10" stroke-linecap="round" stroke-linejoin="round"/>
<path d="M302.127 257.563H293.241V263.736H302.127V257.563Z" fill="white" stroke="#313131" stroke-miterlimit="10" stroke-linecap="round" stroke-linejoin="round"/>
<path d="M260.31 257.265C260.31 257.265 270.017 252.059 266.657 226.028L254.336 219.334L233.054 215.987L214.013 216.731V227.515C214.013 227.515 224.84 236.812 225.96 239.787C227.08 242.762 227.08 246.109 227.08 246.109V256.522L260.31 257.265Z" fill="#001689" stroke="#313131" stroke-miterlimit="10" stroke-linecap="round" stroke-linejoin="round"/>
<path d="M266.658 226.028L260.311 257.265" stroke="#313131" stroke-miterlimit="10" stroke-linecap="round" stroke-linejoin="round"/>
<path d="M254.336 219.334L247.242 257.265" stroke="#313131" stroke-miterlimit="10" stroke-linecap="round" stroke-linejoin="round"/>
<path d="M233.054 215.987L227.827 244.25" stroke="#313131" stroke-miterlimit="10" stroke-linecap="round" stroke-linejoin="round"/>
<path d="M214.76 226.028C214.76 226.028 227.081 231.234 231.935 234.581C236.788 237.928 236.042 244.993 236.042 244.993" stroke="#313131" stroke-miterlimit="10" stroke-linecap="round" stroke-linejoin="round"/>
<path d="M274.872 257.786H217V262.621H274.872V257.786Z" fill="white" stroke="#313131" stroke-miterlimit="10" stroke-linecap="round" stroke-linejoin="round"/>
<path d="M286.445 245.365H298.542L292.046 234.209H286.445V245.365Z" fill="white" stroke="#313131" stroke-miterlimit="10" stroke-linecap="round" stroke-linejoin="round"/>
<path d="M284.579 234.209H279.352V245.365H284.579V234.209Z" fill="white" stroke="#313131" stroke-miterlimit="10" stroke-linecap="round" stroke-linejoin="round"/>
<path d="M252.545 257.563H217.299V265.967H252.545V257.563Z" fill="white" stroke="#313131" stroke-miterlimit="10" stroke-linecap="round" stroke-linejoin="round"/>
<path d="M285.964 272.769C289.982 272.046 292.651 268.216 291.925 264.214C291.2 260.212 287.355 257.554 283.337 258.277C279.319 258.999 276.65 262.829 277.375 266.831C278.101 270.833 281.946 273.492 285.964 272.769Z" fill="#313131" stroke="#313131" stroke-miterlimit="10" stroke-linecap="round" stroke-linejoin="round"/>
<path d="M284.653 269.835C287.045 269.835 288.984 267.903 288.984 265.521C288.984 263.139 287.045 261.207 284.653 261.207C282.261 261.207 280.322 263.139 280.322 265.521C280.322 267.903 282.261 269.835 284.653 269.835Z" fill="white" stroke="#313131" stroke-miterlimit="10" stroke-linecap="round" stroke-linejoin="round"/>
<path d="M228.818 272.764C232.838 272.055 235.52 268.234 234.809 264.23C234.097 260.226 230.261 257.554 226.24 258.263C222.22 258.972 219.538 262.792 220.249 266.797C220.961 270.801 224.797 273.473 228.818 272.764Z" fill="#313131" stroke="#313131" stroke-miterlimit="10" stroke-linecap="round" stroke-linejoin="round"/>
<path d="M227.529 269.835C229.921 269.835 231.86 267.904 231.86 265.521C231.86 263.139 229.921 261.207 227.529 261.207C225.137 261.207 223.198 263.139 223.198 265.521C223.198 267.904 225.137 269.835 227.529 269.835Z" fill="white" stroke="#313131" stroke-miterlimit="10" stroke-linecap="round" stroke-linejoin="round"/>
<path d="M250.353 270.961C253.36 268.211 253.56 263.553 250.799 260.557C248.037 257.562 243.361 257.363 240.354 260.113C237.346 262.864 237.147 267.521 239.908 270.517C242.669 273.512 247.345 273.711 250.353 270.961Z" fill="#313131" stroke="#313131" stroke-miterlimit="10" stroke-linecap="round" stroke-linejoin="round"/>
<path d="M245.375 269.835C247.767 269.835 249.706 267.904 249.706 265.521C249.706 263.139 247.767 261.207 245.375 261.207C242.983 261.207 241.044 263.139 241.044 265.521C241.044 267.904 242.983 269.835 245.375 269.835Z" fill="white" stroke="#313131" stroke-miterlimit="10" stroke-linecap="round" stroke-linejoin="round"/>
<path d="M242.986 244.622H224.318C222.974 244.622 221.929 245.737 221.929 247.002V254.811C221.929 256.15 223.049 257.191 224.318 257.191H242.986C244.331 257.191 245.376 256.075 245.376 254.811V247.002C245.376 245.663 244.331 244.622 242.986 244.622Z" fill="#313131" stroke="#313131" stroke-miterlimit="10" stroke-linecap="round" stroke-linejoin="round"/>
<path d="M212.52 257.265V220.449H219.987V257.265" stroke="#313131" stroke-miterlimit="10" stroke-linecap="round" stroke-linejoin="round"/>
<path d="M212.595 225.358H219.913" stroke="#313131" stroke-miterlimit="10" stroke-linecap="round" stroke-linejoin="round"/>
<path d="M212.595 231.085H219.913" stroke="#313131" stroke-miterlimit="10" stroke-linecap="round" stroke-linejoin="round"/>
<path d="M212.595 236.812H219.913" stroke="#313131" stroke-miterlimit="10" stroke-linecap="round" stroke-linejoin="round"/>
<path d="M212.595 242.539H219.913" stroke="#313131" stroke-miterlimit="10" stroke-linecap="round" stroke-linejoin="round"/>
<path d="M212.595 248.34H219.913" stroke="#313131" stroke-miterlimit="10" stroke-linecap="round" stroke-linejoin="round"/>
<path d="M212.595 254.067H219.913" stroke="#313131" stroke-miterlimit="10" stroke-linecap="round" stroke-linejoin="round"/>
<path d="M63.1736 273.628H49.7324V40.0884L63.1736 55.7073V273.628Z" stroke="#313131" stroke-miterlimit="10" stroke-linecap="round" stroke-linejoin="round"/>
<path d="M49.8818 224.54H63.0989L49.8818 211.896H63.0989L49.8818 224.54Z" stroke="#313131" stroke-miterlimit="10" stroke-linecap="round" stroke-linejoin="round"/>
<path d="M49.8818 211.524H63.0989L49.8818 198.88H63.0989L49.8818 211.524Z" stroke="#313131" stroke-miterlimit="10" stroke-linecap="round" stroke-linejoin="round"/>
<path d="M49.8818 198.509H63.0989L49.8818 185.865H63.0989L49.8818 198.509Z" stroke="#313131" stroke-miterlimit="10" stroke-linecap="round" stroke-linejoin="round"/>
<path d="M49.8818 185.493H63.0989L49.8818 172.849H63.0989L49.8818 185.493Z" stroke="#313131" stroke-miterlimit="10" stroke-linecap="round" stroke-linejoin="round"/>
<path d="M49.8818 172.477H63.0989L49.8818 159.833H63.0989L49.8818 172.477Z" stroke="#313131" stroke-miterlimit="10" stroke-linecap="round" stroke-linejoin="round"/>
<path d="M49.8818 159.461H63.0989L49.8818 146.818H63.0989L49.8818 159.461Z" stroke="#313131" stroke-miterlimit="10" stroke-linecap="round" stroke-linejoin="round"/>
<path d="M49.8818 146.446H63.0989L49.8818 133.802H63.0989L49.8818 146.446Z" stroke="#313131" stroke-miterlimit="10" stroke-linecap="round" stroke-linejoin="round"/>
<path d="M49.8818 133.43H63.0989L49.8818 120.786H63.0989L49.8818 133.43Z" stroke="#313131" stroke-miterlimit="10" stroke-linecap="round" stroke-linejoin="round"/>
<path d="M49.8818 120.414H63.0989L49.8818 107.77H63.0989L49.8818 120.414Z" stroke="#313131" stroke-miterlimit="10" stroke-linecap="round" stroke-linejoin="round"/>
<path d="M49.8818 107.398H63.0989L49.8818 94.7545H63.0989L49.8818 107.398Z" stroke="#313131" stroke-miterlimit="10" stroke-linecap="round" stroke-linejoin="round"/>
<path d="M49.8818 94.3827H63.0989L49.8818 81.7388H63.0989L49.8818 94.3827Z" stroke="#313131" stroke-miterlimit="10" stroke-linecap="round" stroke-linejoin="round"/>
<path d="M49.8818 81.3669H63.0989L49.8818 68.7231H63.0989L49.8818 81.3669Z" stroke="#313131" stroke-miterlimit="10" stroke-linecap="round" stroke-linejoin="round"/>
<path d="M49.8818 68.3512H63.0989L49.8818 55.7073H63.0989L49.8818 68.3512Z" stroke="#313131" stroke-miterlimit="10" stroke-linecap="round" stroke-linejoin="round"/>
<path d="M125.6 68.7231L119.104 64.6324H72.5824L66.9072 68.7231H125.6Z" stroke="#313131" stroke-miterlimit="10" stroke-linecap="round" stroke-linejoin="round"/>
<path d="M126.646 68.3512H13.1426V71.3262H126.646V68.3512Z" fill="#313131" stroke="#313131" stroke-miterlimit="10" stroke-linecap="round" stroke-linejoin="round"/>
<path d="M119.104 64.6324L49.7324 40.0884L72.5824 64.6324" stroke="#313131" stroke-miterlimit="10" stroke-linecap="round" stroke-linejoin="round"/>
<path d="M49.7324 40.0884L13.1426 68.3512" stroke="#313131" stroke-miterlimit="10" stroke-linecap="round" stroke-linejoin="round"/>
<path d="M72.8803 74.6731H44.8779V92.5233H72.8803V74.6731Z" fill="#313131" stroke="#313131" stroke-miterlimit="10" stroke-linecap="round" stroke-linejoin="round"/>
<path d="M67.0565 78.3919H50.7031V83.5982H67.0565V78.3919Z" fill="white" stroke="#313131" stroke-miterlimit="10" stroke-linecap="round" stroke-linejoin="round"/>
<path d="M126.646 71.3262V103.457" stroke="#313131" stroke-miterlimit="10" stroke-linecap="round" stroke-linejoin="round"/>
<path d="M130.902 114.39H122.613V123.761H130.902V114.39Z" fill="#313131" stroke="#313131" stroke-miterlimit="10" stroke-linecap="round" stroke-linejoin="round"/>
<path d="M122.613 114.39L126.795 102.787L130.902 114.39" stroke="#313131" stroke-miterlimit="10" stroke-linecap="round" stroke-linejoin="round"/>
<path d="M104.318 227.366L122.314 255.555L126.794 252.282L113.577 226.028C112.382 223.648 109.918 222.086 107.155 222.086C104.467 222.16 102.824 225.135 104.318 227.366Z" fill="#001689" stroke="#313131" stroke-miterlimit="10" stroke-linecap="round" stroke-linejoin="round"/>
<path d="M125.151 248.638L106.707 261.728C106.707 261.728 108.35 268.645 119.028 268.273C129.706 267.901 129.258 256.819 129.258 256.819L125.151 248.638Z" fill="#313131" stroke="white" stroke-miterlimit="10" stroke-linecap="round" stroke-linejoin="round"/>
<path d="M73.9258 240.085L107.305 225.135C109.545 224.094 112.233 224.838 113.727 226.846C115.519 229.226 114.921 232.573 112.532 234.283L76.0166 259.794L73.9258 240.085Z" fill="#001689" stroke="#313131" stroke-miterlimit="10" stroke-linecap="round" stroke-linejoin="round"/>
<path d="M68.9975 258.456H34.5732V263.736H68.9975V258.456Z" fill="white" stroke="#313131" stroke-miterlimit="10" stroke-linecap="round" stroke-linejoin="round"/>
<path d="M52.1958 243.357H22.252V255.629H52.1958V243.357Z" fill="#313131" stroke="#313131" stroke-miterlimit="10" stroke-linecap="round" stroke-linejoin="round"/>
<path d="M46.0723 255.555H76.0161V231.68C76.0161 230.416 74.9707 229.449 73.7759 229.449H48.3871C47.1177 229.449 46.1469 230.49 46.1469 231.68V255.555H46.0723Z" fill="#001689" stroke="#313131" stroke-miterlimit="10" stroke-linecap="round" stroke-linejoin="round"/>
<path d="M21.9534 272.959H70.9389C74.1498 272.959 76.7634 270.356 76.7634 267.157C76.7634 263.959 74.1498 261.356 70.9389 261.356H21.9534C18.7425 261.356 16.1289 263.959 16.1289 267.157C16.1289 270.356 18.7425 272.959 21.9534 272.959Z" fill="#313131" stroke="#313131" stroke-miterlimit="10" stroke-linecap="round" stroke-linejoin="round"/>
<path d="M29.346 272.959H78.3315C81.5424 272.959 84.156 270.356 84.156 267.157C84.156 263.959 81.5424 261.356 78.3315 261.356H29.346C26.135 261.356 23.5215 263.959 23.5215 267.157C23.5215 270.356 26.135 272.959 29.346 272.959Z" fill="white" stroke="#313131" stroke-miterlimit="10" stroke-linecap="round" stroke-linejoin="round"/>
<path d="M75.9418 255.555H22.252V259.646H75.9418V255.555Z" fill="white" stroke="#313131" stroke-miterlimit="10" stroke-linecap="round" stroke-linejoin="round"/>
<path d="M33.3785 267.083C33.3785 269.091 31.7357 270.727 29.7195 270.727C27.7034 270.727 26.0605 269.091 26.0605 267.083C26.0605 265.075 27.7034 263.439 29.7195 263.439C31.661 263.439 33.3785 265.075 33.3785 267.083Z" fill="#313131" stroke="#313131" stroke-miterlimit="10" stroke-linecap="round" stroke-linejoin="round"/>
<path d="M39.5018 270.727C41.5226 270.727 43.1607 269.096 43.1607 267.083C43.1607 265.07 41.5226 263.439 39.5018 263.439C37.481 263.439 35.8428 265.07 35.8428 267.083C35.8428 269.096 37.481 270.727 39.5018 270.727Z" fill="#313131" stroke="#313131" stroke-miterlimit="10" stroke-linecap="round" stroke-linejoin="round"/>
<path d="M49.3582 270.727C51.379 270.727 53.0172 269.096 53.0172 267.083C53.0172 265.07 51.379 263.439 49.3582 263.439C47.3374 263.439 45.6992 265.07 45.6992 267.083C45.6992 269.096 47.3374 270.727 49.3582 270.727Z" fill="#313131" stroke="#313131" stroke-miterlimit="10" stroke-linecap="round" stroke-linejoin="round"/>
<path d="M62.8736 267.083C62.8736 269.091 61.2308 270.727 59.2146 270.727C57.1985 270.727 55.5557 269.091 55.5557 267.083C55.5557 265.075 57.1985 263.439 59.2146 263.439C61.1561 263.439 62.8736 265.075 62.8736 267.083Z" fill="#313131" stroke="#313131" stroke-miterlimit="10" stroke-linecap="round" stroke-linejoin="round"/>
<path d="M72.6568 267.083C72.6568 269.091 71.014 270.727 68.9979 270.727C66.9817 270.727 65.3389 269.091 65.3389 267.083C65.3389 265.075 66.9817 263.439 68.9979 263.439C71.014 263.439 72.6568 265.075 72.6568 267.083Z" fill="#313131" stroke="#313131" stroke-miterlimit="10" stroke-linecap="round" stroke-linejoin="round"/>
<path d="M82.5133 267.083C82.5133 269.091 80.8705 270.727 78.8543 270.727C76.8381 270.727 75.1953 269.091 75.1953 267.083C75.1953 265.075 76.8381 263.439 78.8543 263.439C80.8705 263.439 82.5133 265.075 82.5133 267.083Z" fill="#313131" stroke="#313131" stroke-miterlimit="10" stroke-linecap="round" stroke-linejoin="round"/>
<path d="M111.188 229.449C111.188 228.333 110.292 227.441 109.171 227.441C108.051 227.441 107.155 228.333 107.155 229.449C107.155 230.565 108.051 231.457 109.171 231.457C110.292 231.532 111.188 230.639 111.188 229.449Z" fill="#313131" stroke="#313131" stroke-miterlimit="10" stroke-linecap="round" stroke-linejoin="round"/>
<path d="M71.4613 232.721H49.7314V245.812H71.4613V232.721Z" fill="white" stroke="#313131" stroke-miterlimit="10" stroke-linecap="round" stroke-linejoin="round"/>
<path d="M71.4619 232.721H59.5889V245.812H71.4619V232.721Z" fill="white" stroke="#313131" stroke-miterlimit="10" stroke-linecap="round" stroke-linejoin="round"/>
</g>
<defs>
<clipPath id="clip0_850:1526">
<rect width="314" height="274" fill="white"/>
</clipPath>
</defs>
</svg>
