<svg width="180" height="27" viewBox="0 0 180 27" fill="none" xmlns="http://www.w3.org/2000/svg">
<path d="M7.84398 15.4263V13.6507L7.73239 13.6377C6.99764 13.5617 6.28966 13.3157 5.66248 12.9185C4.96308 12.4832 4.38625 11.8709 3.98817 11.1411C3.5867 10.3654 3.3815 9.4999 3.39113 8.62303C3.40077 7.74617 3.62494 6.8856 4.04335 6.11924C4.47678 5.36325 5.10537 4.74277 5.86077 4.32527C5.95438 4.27145 6.0502 4.22189 6.14701 4.17483L6.21893 4.13995V2.49403H7.30279V8.22928H10.6332V9.28624H6.21893V5.42539L6.0172 5.5796C5.62279 5.88062 5.29406 6.26182 5.05183 6.69904C4.70612 7.29615 4.5297 7.9792 4.54217 8.67231C4.5301 9.33338 4.6877 9.9862 4.99936 10.5662C5.2749 11.0802 5.66293 11.5227 6.13338 11.8593C6.60384 12.1959 7.14407 12.4177 7.7122 12.5073L7.85729 12.5299V10.1329H8.98203V12.5299L9.12687 12.5079C9.63345 12.4345 10.1186 12.2511 10.5497 11.9702C11.0858 11.6283 11.5254 11.1502 11.8252 10.5828C12.1407 9.98472 12.3027 9.31506 12.2962 8.63607C12.2897 7.95708 12.1149 7.29078 11.788 6.69903C11.4541 6.11654 10.9753 5.63404 10.3999 5.30017C9.79711 4.95621 9.11671 4.77826 8.42582 4.78385C8.37187 4.78385 8.31833 4.7849 8.26521 4.787V3.66717C8.31842 3.66529 8.37187 3.66416 8.42582 3.66416C9.31925 3.65881 10.1999 3.88065 10.9879 4.30958C12.1092 4.97811 12.931 6.06521 13.2789 7.34045C13.6268 8.6157 13.4736 9.97884 12.8516 11.1409C12.4526 11.8719 11.8743 12.4849 11.1731 12.9201C10.5496 13.3113 9.84844 13.5562 9.12047 13.6369L9.00913 13.6503V15.4262L7.84398 15.4263ZM3.52236 22.098L3.99014 23.2689H12.8657L13.333 22.098H3.52236ZM4.6306 24.8717L5.09813 26.0426H11.7574L12.2252 24.8717H4.6306ZM14.267 2.39867C13.4508 1.59477 12.4827 0.968274 11.4215 0.557216C10.3603 0.146158 9.2281 -0.04088 8.09376 0.00745738C5.99055 0.101855 3.99728 0.990992 2.50274 2.50144C1.0082 4.01189 0.119566 6.03534 0.0101762 8.17708C-0.0774774 9.98695 0.402924 11.7782 1.38174 13.2913C2.74352 15.3588 3.48501 17.7855 3.5157 20.2752H4.66508C4.63454 17.5568 3.82718 14.9065 2.34169 12.6481C1.49679 11.3412 1.08255 9.79417 1.15906 8.23128C1.25322 6.38206 2.02033 4.63492 3.31071 3.33076C4.60109 2.0266 6.32216 1.25899 8.13809 1.17772C9.46735 1.12426 10.7856 1.44304 11.9494 2.09941C13.1133 2.75577 14.0782 3.72461 14.7394 4.90058C15.4005 6.07655 15.7326 7.41465 15.6994 8.76942C15.6663 10.1242 15.2692 11.4438 14.5513 12.5847C13.0792 14.8755 12.2615 17.5382 12.1895 20.2752H13.3394C13.4113 17.763 14.1653 15.3202 15.5177 13.2181C16.5705 11.5459 17.0213 9.55336 16.7932 7.58036C16.5652 5.60736 15.6724 3.77604 14.267 2.39867H14.267Z" fill="#FF8800"/>
<path d="M35.6704 18.1896V20.0482H26.8085V6.22088H28.6626V18.1896H35.6704ZM50.3588 6.22088V14.0672C50.3588 15.5069 50.0569 16.5788 49.4613 17.253C48.8613 17.9321 48.0101 18.2624 46.8588 18.2624C45.6804 18.2624 44.8246 17.9338 44.2341 17.2484C43.6415 16.5944 43.3411 15.5241 43.3411 14.0672V6.22088H41.488V14.1044C41.488 16.0486 41.9599 17.5522 42.8904 18.5732C43.8238 19.6134 45.1529 20.1409 46.841 20.1409C48.5108 20.1409 49.8394 19.614 50.79 18.5748C51.7336 17.5409 52.212 16.0374 52.212 14.1054V6.22088H50.3588ZM73.5447 6.22088H72.0539L66.8888 15.6151L61.7238 6.22088H60.2146V20.0483H62.05V10.5001L66.3843 18.3458H67.376L71.713 10.4644L71.7281 20.0482H73.5638L73.5447 6.22088ZM81.6574 6.22088V20.0483H83.5106V6.22088H81.6574ZM104.078 13.1337C104.09 14.3399 103.806 15.5288 103.252 16.5851L103.252 16.5854C102.712 17.6083 101.928 18.4662 100.978 19.0752C100.134 19.6216 99.1856 19.9639 98.2005 20.0773V22.5185H96.3295V20.0783C95.3355 19.9716 94.3777 19.6278 93.529 19.0729C92.5813 18.4638 91.7996 17.6068 91.2602 16.5854C90.7159 15.5008 90.4377 14.2904 90.4509 13.064C90.464 11.8376 90.7681 10.6341 91.3355 9.56281C91.9221 8.50535 92.773 7.63738 93.7957 7.05333C94.8558 6.43306 96.0513 6.11456 97.2641 6.1293C98.4721 6.12204 99.6628 6.43226 100.728 7.03182C101.759 7.63469 102.615 8.52066 103.205 9.59525C103.795 10.6698 104.097 11.8928 104.078 13.1337V13.1337ZM98.1649 14.9502V18.1906C98.8105 18.0934 99.4288 17.8522 99.9785 17.483C100.662 17.0326 101.223 16.4027 101.605 15.6551C102.008 14.8663 102.215 13.9831 102.207 13.0877C102.199 12.1922 101.976 11.3133 101.559 10.5326C101.133 9.76477 100.522 9.12858 99.7885 8.68798C99.0111 8.24043 98.139 8.00608 97.2529 8.00655C96.3667 8.00701 95.4949 8.24228 94.7179 8.69064C93.9792 9.12132 93.3682 9.75887 92.9528 10.5326C92.5117 11.3197 92.287 12.2202 92.3036 13.1337C92.2879 14.0059 92.489 14.8673 92.8869 15.6326C93.2384 16.3097 93.7334 16.8926 94.3335 17.3361C94.9335 17.7795 95.6225 18.0717 96.3471 18.1899V14.9502H98.1649ZM119.785 6.22088V14.0672C119.785 15.5079 119.484 16.5798 118.889 17.253C118.29 17.9321 117.438 18.2624 116.287 18.2624C115.108 18.2624 114.253 17.9338 113.662 17.2484C113.069 16.5944 112.769 15.5241 112.769 14.0672V6.22088H110.916V14.1044C110.916 16.0486 111.388 17.5522 112.318 18.5728C113.25 19.6134 114.579 20.1409 116.269 20.1409C117.94 20.1409 119.268 19.614 120.217 18.5752C121.16 17.5426 121.639 16.039 121.639 14.1054V6.22088H119.785ZM134.616 6.22088H133.11L127.066 20.0483H129.087L133.855 8.98305L138.639 20.0483H140.661L134.616 6.22088ZM148.318 18.1896V6.22088H146.465V20.0483H155.327V18.1896L148.318 18.1896ZM161.486 6.22088V20.0483H163.34V6.22088H161.486ZM179.296 14.1091C178.872 13.6124 178.345 13.2237 177.757 12.9724C177.037 12.6951 176.302 12.462 175.556 12.2741C174.932 12.1251 174.317 11.9357 173.715 11.7068C173.34 11.5685 173 11.3392 172.724 11.0373C172.607 10.9005 172.518 10.7402 172.462 10.566C172.405 10.3919 172.383 10.2075 172.397 10.0241C172.389 9.74187 172.448 9.46207 172.567 9.20935C172.687 8.95663 172.864 8.73876 173.082 8.57497C173.566 8.17335 174.325 7.96965 175.339 7.96965C175.877 7.97472 176.411 8.06041 176.925 8.22416C177.453 8.38756 177.952 8.63651 178.407 8.96202L178.877 9.29877L179.62 7.61272L179.28 7.37029C178.716 6.97715 178.102 6.6708 177.456 6.46049C176.769 6.24618 176.056 6.13471 175.339 6.12937C174.443 6.10802 173.552 6.27972 172.721 6.63391C172.057 6.93509 171.49 7.4322 171.089 8.06513C170.728 8.65422 170.538 9.34163 170.543 10.0428C170.505 10.8337 170.746 11.6117 171.22 12.2267C171.643 12.7373 172.18 13.1303 172.782 13.371C173.504 13.6579 174.245 13.891 174.998 14.0685C175.614 14.2163 176.221 14.3991 176.818 14.6159C177.188 14.7626 177.524 14.9882 177.806 15.2785C177.924 15.4172 178.014 15.5788 178.072 15.7542C178.129 15.9296 178.154 16.1152 178.144 16.3005C178.151 16.5782 178.09 16.8533 177.969 17.0997C177.847 17.3461 177.667 17.5557 177.447 17.7087C176.959 18.1009 176.174 18.2995 175.113 18.2995C174.387 18.3022 173.668 18.1644 172.99 17.8931C172.407 17.6761 171.88 17.3201 171.451 16.8529L171.015 16.3574L170.093 17.9583L170.342 18.2392C170.92 18.8588 171.622 19.3338 172.398 19.6293C173.27 19.9801 174.197 20.1533 175.13 20.1396C176.028 20.1674 176.921 19.9983 177.754 19.6432C178.438 19.3618 179.025 18.8662 179.433 18.2234C179.8 17.6359 179.996 16.9489 179.997 16.2462C180.032 15.4658 179.781 14.701 179.296 14.1091Z" fill="#FF8800"/>
</svg>
