<svg width="235" height="34" viewBox="0 0 235 34" fill="none" xmlns="http://www.w3.org/2000/svg">
<path d="M10.2407 20.1398V17.8218L10.0951 17.8047C9.13581 17.7056 8.21149 17.3844 7.39268 16.8658C6.47958 16.2975 5.7265 15.4981 5.20677 14.5453C4.68264 13.5326 4.41473 12.4026 4.42731 11.2579C4.43989 10.1131 4.73256 8.98954 5.27881 7.98901C5.84469 7.00202 6.66534 6.19195 7.65156 5.64689C7.77377 5.57661 7.89887 5.51191 8.02526 5.45048L8.11916 5.40494V3.25609H9.5342V10.7438H13.8822V12.1237H8.11916V7.08315L7.85579 7.28448C7.34086 7.67748 6.91168 8.17516 6.59544 8.74597C6.1441 9.52553 5.91378 10.4173 5.93006 11.3222C5.9143 12.1852 6.12005 13.0375 6.52694 13.7947C6.88667 14.4658 7.39327 15.0435 8.00747 15.483C8.62167 15.9224 9.32698 16.2119 10.0687 16.329L10.2581 16.3585V13.2291H11.7265V16.3585L11.9156 16.3298C12.577 16.2339 13.2105 15.9945 13.7732 15.6277C14.4732 15.1814 15.047 14.5572 15.4384 13.8165C15.8503 13.0356 16.0619 12.1613 16.0534 11.2749C16.0449 10.3884 15.8167 9.51851 15.3899 8.74596C14.9539 7.98548 14.3288 7.35555 13.5777 6.91966C12.7907 6.47061 11.9024 6.23828 11.0004 6.24559C10.9299 6.24559 10.86 6.24696 10.7907 6.24969V4.78769C10.8602 4.78524 10.9299 4.78376 11.0004 4.78376C12.1668 4.77678 13.3165 5.06641 14.3453 5.62639C15.8093 6.4992 16.8821 7.91847 17.3363 9.58337C17.7905 11.2483 17.5905 13.0279 16.7785 14.5451C16.2576 15.4994 15.5025 16.2998 14.5872 16.8679C13.7731 17.3786 12.8577 17.6983 11.9073 17.8038L11.7619 17.8213V20.1398L10.2407 20.1398ZM4.59863 28.8502L5.20935 30.3788H16.7968L17.4069 28.8502H4.59863ZM6.0455 32.4713L6.65589 34H15.35L15.9607 32.4713H6.0455ZM18.6264 3.1316C17.5608 2.08206 16.2968 1.26414 14.9114 0.727477C13.5259 0.190817 12.0478 -0.0533712 10.5668 0.00973603C7.821 0.132977 5.21867 1.2938 3.26747 3.26577C1.31626 5.23775 0.1561 7.87946 0.0132856 10.6756C-0.101151 13.0385 0.526039 15.3771 1.80394 17.3525C3.58182 20.0518 4.54987 23.22 4.58995 26.4704H6.09052C6.05065 22.9214 4.99659 19.4612 3.05721 16.5128C1.95414 14.8066 1.41332 12.7868 1.51322 10.7464C1.63615 8.33214 2.63765 6.05114 4.32231 4.34849C6.00698 2.64584 8.25393 1.64368 10.6247 1.53757C12.3602 1.46778 14.0812 1.88397 15.6006 2.74089C17.1201 3.59781 18.3799 4.86268 19.2431 6.39798C20.1062 7.93327 20.5397 9.68024 20.4965 11.449C20.4532 13.2177 19.9347 14.9405 18.9975 16.4301C17.0757 19.4208 16.0081 22.8971 15.9141 26.4704H17.4153C17.5092 23.1905 18.4936 20.0014 20.2592 17.257C21.6337 15.0738 22.2222 12.4724 21.9245 9.89658C21.6268 7.32073 20.4611 4.92983 18.6264 3.1316H18.6264Z" fill="#FF8800"/>
<path d="M46.5697 23.7476V26.1742H35V8.12178H37.4207V23.7476H46.5697ZM65.7463 8.12178V18.3656C65.7463 20.2452 65.3521 21.6447 64.5745 22.5248C63.7913 23.4115 62.6799 23.8427 61.1768 23.8427C59.6384 23.8427 58.521 23.4136 57.7501 22.5188C56.9765 21.665 56.5843 20.2676 56.5843 18.3656V8.12178H54.1649V18.4142C54.1649 20.9525 54.781 22.9154 55.9959 24.2484C57.2144 25.6064 58.9497 26.2952 61.1536 26.2952C63.3336 26.2952 65.0681 25.6073 66.3092 24.2506C67.5411 22.9007 68.1657 20.9378 68.1657 18.4155V8.12178H65.7463ZM96.0168 8.12178H94.0704L87.3271 20.3865L80.5839 8.12178H78.6135V26.1742H81.0098V13.7086L86.6684 23.9516H87.9632L93.6253 13.6619L93.645 26.1742H96.0417L96.0168 8.12178ZM106.608 8.12178V26.1742H109.028V8.12178H106.608ZM135.88 17.1469C135.896 18.7216 135.524 20.2738 134.802 21.6529L134.801 21.6532C134.096 22.9887 133.073 24.1087 131.833 24.9038C130.731 25.6172 129.492 26.064 128.206 26.2121V29.3992H125.764V26.2134C124.466 26.0742 123.215 25.6252 122.107 24.9008C120.87 24.1056 119.85 22.9867 119.145 21.6532C118.435 20.2373 118.071 18.657 118.089 17.0559C118.106 15.4548 118.503 13.8836 119.244 12.4849C120.009 11.1043 121.12 9.97111 122.456 9.2086C123.84 8.3988 125.4 7.98298 126.984 8.00222C128.561 7.99275 130.115 8.39776 131.506 9.18051C132.852 9.9676 133.97 11.1243 134.74 12.5272C135.51 13.9302 135.904 15.5268 135.88 17.1468V17.1469ZM128.16 19.5184V23.7489C129.003 23.6221 129.81 23.3071 130.527 22.8251C131.42 22.2371 132.152 21.4147 132.651 20.4387C133.177 19.4088 133.448 18.2559 133.437 17.0867C133.427 15.9176 133.136 14.7702 132.592 13.751C132.035 12.7485 131.238 11.918 130.279 11.3427C129.264 10.7584 128.126 10.4525 126.969 10.4531C125.812 10.4537 124.674 10.7608 123.66 11.3462C122.695 11.9085 121.897 12.7408 121.355 13.751C120.779 14.7786 120.486 15.9542 120.508 17.1469C120.487 18.2856 120.75 19.4102 121.269 20.4093C121.728 21.2933 122.374 22.0543 123.158 22.6333C123.941 23.2123 124.841 23.5937 125.787 23.7481V19.5184H128.16ZM156.387 8.12178V18.3656C156.387 20.2465 155.993 21.646 155.217 22.5248C154.434 23.4115 153.322 23.8427 151.819 23.8427C150.28 23.8427 149.163 23.4136 148.393 22.5188C147.618 21.665 147.226 20.2676 147.226 18.3656V8.12178H144.807V18.4142C144.807 20.9525 145.423 22.9154 146.638 24.248C147.855 25.6064 149.59 26.2952 151.796 26.2952C153.977 26.2952 155.711 25.6073 156.95 24.251C158.182 22.9029 158.806 20.9399 158.806 18.4155V8.12178H156.387ZM175.749 8.12178H173.783L165.891 26.1742H168.531L174.756 11.728L181.001 26.1742H183.641L175.749 8.12178ZM193.637 23.7476V8.12178H191.218V26.1742H202.788V23.7476L193.637 23.7476ZM210.829 8.12178V26.1742H213.249V8.12178H210.829ZM234.081 18.4203C233.527 17.7718 232.84 17.2644 232.072 16.9363C231.131 16.5743 230.172 16.2699 229.198 16.0246C228.383 15.8301 227.581 15.5828 226.795 15.284C226.305 15.1034 225.861 14.804 225.501 14.4099C225.349 14.2313 225.232 14.022 225.159 13.7946C225.085 13.5672 225.056 13.3265 225.073 13.0871C225.064 12.7186 225.14 12.3533 225.296 12.0234C225.452 11.6935 225.683 11.409 225.969 11.1952C226.6 10.6708 227.591 10.4049 228.915 10.4049C229.617 10.4115 230.314 10.5234 230.986 10.7372C231.674 10.9505 232.327 11.2755 232.92 11.7005L233.534 12.1402L234.504 9.93891L234.06 9.62241C233.324 9.10915 232.523 8.70918 231.679 8.43462C230.782 8.15482 229.851 8.00929 228.915 8.00231C227.745 7.97445 226.582 8.19861 225.497 8.66102C224.63 9.05423 223.89 9.70324 223.367 10.5296C222.895 11.2986 222.647 12.1961 222.654 13.1115C222.603 14.1441 222.918 15.1599 223.537 15.9628C224.09 16.6294 224.79 17.1425 225.576 17.4567C226.519 17.8313 227.486 18.1356 228.47 18.3673C229.274 18.5603 230.067 18.7989 230.846 19.082C231.328 19.2735 231.768 19.568 232.136 19.947C232.289 20.1281 232.407 20.3391 232.482 20.5681C232.558 20.797 232.59 21.0394 232.576 21.2813C232.586 21.6439 232.507 22.003 232.348 22.3247C232.189 22.6463 231.954 22.92 231.666 23.1198C231.03 23.6318 230.005 23.8911 228.62 23.8911C227.673 23.8946 226.733 23.7147 225.848 23.3605C225.087 23.0773 224.399 22.6124 223.838 22.0024L223.269 21.3556L222.066 23.4456L222.391 23.8124C223.145 24.6213 224.062 25.2415 225.075 25.6272C226.213 26.0852 227.424 26.3113 228.643 26.2935C229.814 26.3297 230.981 26.109 232.067 25.6453C232.961 25.278 233.727 24.631 234.26 23.7917C234.739 23.0248 234.994 22.1278 234.996 21.2104C235.041 20.1915 234.714 19.193 234.081 18.4203V18.4203Z" fill="#FF8800"/>
</svg>
